<?xml version="1.0" standalone="no"?>
<!DOCTYPE svg PUBLIC "-//W3C//DTD SVG 20010904//EN"
 "http://www.w3.org/TR/2001/REC-SVG-20010904/DTD/svg10.dtd">
<svg version="1.0" xmlns="http://www.w3.org/2000/svg"
 width="612.000000pt" height="408.000000pt" viewBox="0 0 612.000000 408.000000"
 preserveAspectRatio="xMidYMid meet">

<g transform="translate(0.000000,408.000000) scale(0.100000,-0.100000)"
fill="#000000" stroke="none">
<path d="M3674 3399 c-12 -20 -14 -137 -4 -165 7 -17 6 -24 -3 -24 -7 0 -5 -5
4 -10 13 -8 15 -20 11 -57 -2 -27 -10 -51 -17 -55 -8 -5 -12 -27 -9 -65 2 -34
-2 -63 -9 -72 -9 -11 -9 -13 0 -8 6 4 13 1 16 -5 5 -13 34 18 49 52 5 12 7 12
7 -3 2 -31 19 -9 26 33 7 40 19 52 28 28 2 -7 8 -1 12 15 4 15 11 27 15 27 14
0 17 92 3 97 -15 6 -5 33 13 33 15 0 18 16 15 62 -2 25 0 27 21 19 13 -5 22
-15 20 -24 -3 -19 29 -47 35 -29 3 6 9 12 15 12 6 0 8 -7 4 -15 -3 -8 -1 -15
4 -15 6 0 10 6 10 13 0 6 5 4 11 -6 6 -9 14 -15 20 -12 5 3 6 -1 3 -9 -3 -9
-1 -16 4 -16 21 0 22 19 2 33 -11 7 -17 17 -12 22 4 5 2 5 -5 2 -11 -7 -43 17
-43 33 0 12 62 -20 81 -41 9 -11 24 -16 36 -13 12 3 27 -2 37 -11 21 -22 29
-15 20 19 -5 23 -9 25 -22 14 -9 -7 -13 -8 -9 -2 4 7 -9 18 -31 28 -20 9 -57
27 -82 41 -55 29 -68 30 -93 8 -15 -13 -21 -15 -24 -5 -3 6 -11 12 -19 12 -8
0 -14 5 -14 10 0 6 8 10 18 10 10 0 4 7 -15 16 -18 9 -33 20 -33 25 0 5 -7 9
-15 9 -18 0 -20 -17 -2 -23 6 -2 9 -7 6 -11 -4 -4 -17 3 -29 16 -16 16 -21 18
-17 6 3 -9 -1 -22 -10 -30 -14 -11 -16 -11 -11 3 9 23 -7 46 -18 28z m246 -83
c0 -2 -16 -3 -35 -2 -30 1 -33 3 -19 13 12 9 22 9 35 2 11 -5 19 -11 19 -13z"/>
<path d="M3834 3376 c13 -13 24 -17 28 -11 15 21 7 34 -20 33 l-28 -1 20 -21z"/>
<path d="M3984 3378 c1 -14 9 -22 25 -25 14 -2 33 -11 43 -20 10 -9 21 -13 25
-10 3 4 14 0 23 -8 12 -11 24 -13 40 -7 22 8 22 9 -14 30 -20 12 -48 25 -62
28 -13 3 -27 10 -30 15 -8 14 -26 11 -19 -3 4 -7 0 -5 -8 5 -19 23 -25 22 -23
-5z"/>
<path d="M4156 3301 c-18 -7 -18 -8 -3 -14 9 -3 17 -2 17 4 0 6 5 7 12 3 7 -4
8 -3 4 4 -4 7 -8 12 -9 11 -1 0 -11 -4 -21 -8z"/>
<path d="M4185 3270 c3 -5 8 -10 11 -10 2 0 4 5 4 10 0 6 -5 10 -11 10 -5 0
-7 -4 -4 -10z"/>
<path d="M4126 3262 c-3 -5 1 -9 9 -9 8 0 15 4 15 9 0 4 -4 8 -9 8 -6 0 -12
-4 -15 -8z"/>
<path d="M4040 3210 c0 -12 28 -58 47 -78 11 -11 13 -11 13 3 0 9 4 14 9 10 5
-3 12 -1 16 5 3 5 -1 10 -9 10 -10 0 -13 7 -11 22 4 16 2 19 -7 10 -15 -15
-42 -16 -33 -2 3 6 1 10 -5 10 -6 0 -8 5 -5 10 3 6 1 10 -4 10 -6 0 -11 -5
-11 -10z"/>
<path d="M3930 3207 c0 -16 21 -47 33 -47 8 0 9 3 1 8 -6 4 -16 16 -22 27 -6
11 -12 16 -12 12z"/>
<path d="M4000 3192 c0 -5 7 -15 15 -22 8 -7 15 -9 15 -6 0 4 -7 14 -15 22 -8
9 -15 11 -15 6z"/>
<path d="M4176 3178 c3 -4 9 -8 15 -8 5 0 9 4 9 8 0 5 -7 9 -15 9 -8 0 -12 -4
-9 -9z"/>
<path d="M4288 3173 c7 -3 16 -2 19 1 4 3 -2 6 -13 5 -11 0 -14 -3 -6 -6z"/>
<path d="M4215 3161 c-3 -5 5 -17 17 -25 12 -9 19 -16 15 -16 -7 0 13 -27 53
-69 14 -15 34 -44 45 -64 11 -20 23 -37 27 -37 4 0 18 -11 32 -25 14 -14 21
-25 16 -25 -6 0 -9 -6 -7 -12 1 -7 -6 -12 -15 -12 -10 1 -18 -3 -18 -8 0 -6
-7 -4 -17 3 -15 13 -15 12 -3 -11 8 -15 15 -20 18 -12 2 6 8 9 14 6 6 -4 14 0
19 7 4 7 11 10 15 6 4 -3 1 -14 -6 -23 -19 -22 7 -39 30 -20 13 11 18 11 33
-4 13 -13 15 -20 7 -25 -9 -6 -9 -10 1 -16 12 -7 12 -9 1 -9 -8 0 -16 9 -19
20 -3 11 -9 17 -15 14 -5 -3 -6 -14 -3 -25 7 -21 -5 -25 -22 -8 -9 9 -11 5 -9
-17 2 -16 -2 -44 -10 -61 -7 -18 -9 -33 -3 -33 5 0 9 -7 9 -16 0 -10 -6 -14
-14 -11 -8 3 -17 1 -19 -6 -3 -7 -3 7 -1 30 3 24 0 53 -7 65 -11 20 -12 20
-21 3 -7 -12 -7 -20 2 -25 8 -5 9 -10 1 -14 -7 -5 -7 -13 1 -26 10 -15 10 -27
1 -51 -10 -26 -10 -30 3 -25 9 3 14 -1 14 -13 0 -15 -5 -18 -22 -13 -30 7 -38
20 -31 53 6 31 -3 39 -37 28 l-25 -7 25 -2 c23 -1 23 -2 5 -10 -11 -5 -14 -9
-7 -9 7 -1 10 -5 7 -11 -3 -5 -1 -10 4 -10 6 0 11 -6 11 -14 0 -8 7 -17 16
-20 8 -3 12 -11 8 -17 -4 -8 -9 -7 -16 2 -7 11 -8 9 -4 -4 3 -10 6 -21 6 -23
0 -3 4 -3 9 1 5 3 12 1 15 -4 4 -5 2 -12 -3 -16 -6 -3 -8 -25 -7 -48 2 -23 1
-32 -1 -21 -3 16 -9 20 -24 17 -10 -3 -19 -10 -19 -15 0 -5 4 -7 9 -4 5 3 11
-1 14 -9 4 -10 1 -12 -11 -9 -11 4 -8 -2 8 -15 19 -16 20 -20 6 -14 -15 5 -17
3 -11 -7 6 -10 4 -12 -7 -8 -11 5 -14 0 -12 -18 2 -19 -1 -22 -14 -15 -10 4
-24 6 -32 4 -11 -3 -12 -2 -3 4 10 7 9 14 -2 31 -15 21 -45 21 -45 0 0 -6 7
-8 15 -5 8 4 17 1 21 -5 4 -6 3 -8 -3 -5 -7 4 -10 -5 -9 -25 1 -39 -21 -48
-34 -14 -5 14 -11 26 -13 26 -9 0 -2 -86 8 -92 6 -5 2 -8 -9 -8 -16 0 -17 5
-11 38 5 30 4 35 -6 25 -7 -7 -13 -33 -14 -57 0 -25 3 -40 7 -33 4 7 6 3 5
-10 0 -12 -4 -20 -8 -17 -4 2 -11 -1 -15 -7 -5 -9 2 -10 24 -6 25 5 32 3 32
-9 0 -11 -6 -15 -19 -11 -13 3 -18 0 -15 -8 3 -7 13 -11 23 -8 11 3 18 -1 18
-11 0 -9 -7 -16 -16 -17 -10 0 -12 -2 -3 -6 6 -2 12 -13 12 -24 0 -14 -7 -19
-30 -19 -33 0 -35 3 -20 31 9 16 7 19 -9 19 -12 0 -29 16 -45 43 -14 23 -25
37 -26 30 0 -6 5 -15 10 -18 6 -3 10 -11 10 -17 0 -6 -3 -9 -6 -5 -7 6 -34
-17 -34 -28 0 -4 12 -4 27 0 26 6 27 6 10 -13 -21 -23 -22 -36 -3 -29 10 4 13
1 9 -9 -8 -20 -18 -17 -31 9 -9 19 -11 19 -11 3 -1 -12 -6 -16 -17 -12 -12 5
-15 2 -9 -11 14 -35 16 -74 5 -87 -8 -10 -7 -15 5 -20 20 -7 10 -26 -13 -26
-15 0 -15 2 -2 10 9 6 10 10 3 10 -15 0 -25 -15 -16 -24 4 -4 9 -18 10 -31 3
-17 -1 -25 -12 -25 -8 0 -20 -11 -25 -24 -11 -29 -30 -43 -30 -22 0 9 5 16 12
16 6 0 3 7 -8 15 -18 14 -18 14 3 10 16 -3 20 0 16 11 -4 10 0 12 11 8 9 -3
16 -1 16 5 0 6 -3 10 -7 10 -21 -3 -43 2 -43 11 0 5 7 7 15 4 10 -4 16 3 20
23 4 15 11 38 16 51 15 38 9 49 -9 17 -9 -16 -23 -31 -30 -33 -8 -1 -11 1 -9
5 7 10 -14 37 -31 40 -6 2 -12 -2 -12 -8 0 -5 -5 -7 -10 -4 -6 4 -7 12 -3 18
4 8 1 7 -9 -1 -9 -7 -29 -17 -45 -22 l-28 -8 28 -1 c17 -1 27 -7 27 -16 0 -18
-30 -20 -30 -2 -1 6 -7 1 -15 -13 -8 -16 -10 -29 -4 -36 6 -7 4 -16 -6 -24
-10 -9 -15 -9 -15 -1 0 6 5 11 12 11 6 0 8 3 5 6 -4 4 -14 1 -24 -7 -11 -9
-14 -10 -9 -1 4 7 2 12 -6 12 -9 0 -9 3 2 10 12 7 13 13 4 28 -8 12 -9 24 -2
36 8 14 5 19 -12 23 -17 4 -19 8 -8 15 10 8 10 9 -2 5 -8 -2 -14 -12 -12 -21
2 -10 -2 -24 -8 -31 -12 -15 -5 -106 10 -136 6 -10 10 -29 10 -43 0 -14 4 -27
9 -30 4 -3 6 7 4 22 -3 23 -2 24 6 7 14 -30 13 -45 -5 -45 -13 0 -15 -7 -10
-35 5 -23 3 -35 -4 -35 -7 0 -3 -14 9 -34 24 -38 26 -50 9 -41 -7 4 -4 -1 6
-9 11 -9 25 -16 32 -16 16 0 72 -47 85 -72 8 -15 8 -19 0 -14 -6 4 -13 1 -15
-6 -2 -7 -9 -31 -16 -52 -7 -22 -12 -59 -12 -84 1 -24 -6 -54 -14 -68 -10 -15
-14 -33 -10 -49 5 -18 3 -23 -7 -19 -9 3 -3 -16 15 -53 19 -40 27 -70 26 -98
-2 -31 1 -41 15 -43 20 -4 23 -18 5 -25 -10 -4 -10 -6 0 -6 14 -1 17 -47 3
-55 -4 -3 -22 -7 -39 -8 -17 -1 -28 -6 -25 -11 3 -5 22 -7 42 -4 l36 4 -2 -43
c-1 -24 2 -44 7 -44 6 0 10 -14 10 -31 0 -25 3 -30 16 -25 14 5 15 4 4 -9 -7
-9 -10 -18 -6 -22 3 -3 6 -1 6 5 0 7 5 12 11 12 5 0 8 -4 5 -9 -16 -25 39 7
89 52 59 52 90 104 79 131 -4 11 0 16 10 16 9 0 20 10 25 23 5 12 44 58 86
102 42 44 83 96 91 115 24 55 75 133 103 160 15 14 25 24 23 23 -10 -5 -42 19
-42 31 0 7 15 28 33 47 63 64 184 238 244 349 68 128 116 298 115 415 -1 89
-12 186 -22 180 -4 -2 -5 18 -2 45 3 35 1 50 -7 50 -8 0 -10 8 -6 20 3 11 3
20 -2 20 -9 0 -32 76 -56 180 -21 93 -133 271 -179 286 -10 3 -15 10 -12 16 4
7 2 8 -4 4 -7 -4 -12 -3 -12 2 0 6 -7 12 -15 16 -32 12 5 -33 40 -50 20 -9 33
-19 30 -22 -2 -3 1 -12 8 -21 10 -14 10 -14 -5 -3 -9 8 -22 11 -27 7 -7 -4 -8
1 -4 12 3 10 3 15 -2 11 -8 -8 -64 44 -66 62 -2 11 -5 25 -9 38 -1 4 -2 11 -1
15 1 5 -3 6 -9 2 -8 -5 -7 -11 1 -21 30 -37 -37 6 -87 55 -13 13 -22 26 -20
30 2 3 -11 7 -30 8 -35 2 -47 -12 -16 -20 13 -4 14 -5 1 -6 -8 0 -25 8 -37 19
-11 11 -24 16 -27 11z m162 -147 c-3 -3 -12 -4 -19 -1 -8 3 -5 6 6 6 11 1 17
-2 13 -5z m147 -112 c12 -42 15 -92 6 -92 -6 0 -13 8 -17 18 -8 23 -42 103
-54 126 -8 14 -2 11 25 -9 19 -15 37 -34 40 -43z m-64 -38 c0 -8 -5 -12 -10
-9 -6 4 -8 11 -5 16 9 14 15 11 15 -7z m207 -91 c-3 -3 -13 1 -21 10 -8 8 -12
17 -9 20 3 3 12 -1 20 -9 9 -8 13 -18 10 -21z m-137 7 c9 -16 8 -20 -5 -20 -8
0 -15 2 -15 4 0 2 -3 11 -6 20 -9 23 13 20 26 -4z m-70 -40 c0 -5 -2 -10 -4
-10 -3 0 -8 5 -11 10 -3 6 -1 10 4 10 6 0 11 -4 11 -10z m-10 -50 c0 -5 -2
-10 -4 -10 -3 0 -8 5 -11 10 -3 6 -1 10 4 10 6 0 11 -4 11 -10z m-15 -100 c3
-5 -1 -10 -9 -10 -9 0 -16 5 -16 10 0 6 4 10 9 10 6 0 13 -4 16 -10z m-2 -27
c2 -5 -3 -19 -10 -33 l-15 -25 7 29 c5 23 3 27 -10 22 -9 -3 -13 -2 -10 4 7
12 32 13 38 3z m-52 -26 c19 -15 14 -37 -9 -37 -15 0 -15 2 -2 10 13 8 13 10
-1 10 -9 0 -16 7 -16 15 0 18 7 18 28 2z m-4 -89 c-3 -8 -6 -5 -6 6 -1 11 2
17 5 13 3 -3 4 -12 1 -19z m-97 -152 c0 -17 -14 -29 -23 -20 -8 8 3 34 14 34
5 0 9 -6 9 -14z m-225 -284 c-3 -3 -11 0 -18 7 -9 10 -8 11 6 5 10 -3 15 -9
12 -12z m-144 -35 c-6 -8 -8 -17 -4 -20 3 -4 1 -7 -5 -7 -16 0 -15 27 1 33 19
8 20 8 8 -6z m-12 -101 c-13 -15 -18 -4 -11 29 6 30 6 30 12 5 4 -14 3 -29 -1
-34z m-49 10 c0 -6 -5 -4 -10 4 -6 10 -10 11 -10 3 0 -7 -4 -13 -9 -13 -5 0
-7 9 -4 20 4 16 8 18 19 9 8 -6 14 -17 14 -23z m30 24 c0 -5 -5 -10 -11 -10
-5 0 -7 5 -4 10 3 6 8 10 11 10 2 0 4 -4 4 -10z m147 -16 c-3 -3 -12 -4 -19
-1 -8 3 -5 6 6 6 11 1 17 -2 13 -5z m-84 -124 c-3 -12 -8 -19 -11 -16 -5 6 5
36 12 36 2 0 2 -9 -1 -20z m-129 -22 c-3 -4 1 -8 8 -9 10 0 10 -2 1 -6 -7 -2
-13 -15 -13 -28 0 -13 -4 -26 -9 -29 -5 -4 -7 3 -4 14 3 11 0 20 -6 20 -6 0
-11 5 -11 11 0 5 5 7 11 3 8 -5 8 -1 0 14 -17 32 -14 44 8 30 11 -7 17 -16 15
-20z m89 8 c-3 -16 -10 -23 -19 -19 -13 5 -12 8 2 24 22 24 22 24 17 -5z m-43
-10 c0 -8 -4 -18 -10 -21 -5 -3 -10 3 -10 14 0 12 5 21 10 21 6 0 10 -6 10
-14z m188 -772 c39 -19 49 -34 25 -34 -22 0 -63 27 -63 41 0 12 2 12 38 -7z"/>
<path d="M4050 3145 c0 -18 19 -40 26 -32 4 4 0 15 -9 24 -9 10 -17 13 -17 8z"/>
<path d="M4110 3085 c0 -8 7 -15 16 -15 14 0 14 3 4 15 -7 8 -14 15 -16 15 -2
0 -4 -7 -4 -15z"/>
<path d="M4156 3031 c-3 -5 1 -11 9 -15 8 -3 15 -1 15 4 0 13 -18 22 -24 11z"/>
<path d="M4197 3010 c-3 -11 1 -24 9 -31 8 -6 14 -16 14 -21 0 -12 26 -38 38
-38 5 0 2 15 -7 34 -9 18 -20 31 -25 28 -5 -3 -6 0 -2 7 4 6 1 18 -7 26 -13
12 -15 12 -20 -5z"/>
<path d="M4267 2904 c-8 -8 1 -24 12 -24 4 0 8 7 8 15 0 16 -9 20 -20 9z"/>
<path d="M4370 2815 c0 -8 5 -15 10 -15 6 0 10 7 10 15 0 8 -4 15 -10 15 -5 0
-10 -7 -10 -15z"/>
<path d="M4325 2782 c-3 -8 -3 -17 0 -20 3 -3 5 0 5 6 0 6 10 12 23 14 l22 3
-22 7 c-15 4 -24 1 -28 -10z"/>
<path d="M4375 2749 c11 -13 21 -26 22 -28 2 -2 3 2 3 10 0 8 -10 20 -22 28
l-23 14 20 -24z"/>
<path d="M4315 2699 c-11 -16 -1 -19 13 -3 7 8 8 14 3 14 -5 0 -13 -5 -16 -11z"/>
<path d="M4721 2665 c0 -5 8 -37 19 -70 16 -49 19 -53 14 -20 -6 38 -32 110
-33 90z"/>
<path d="M4225 2520 c-3 -5 -1 -10 4 -10 6 0 11 5 11 10 0 6 -2 10 -4 10 -3 0
-8 -4 -11 -10z"/>
<path d="M4255 2520 c3 -5 8 -10 11 -10 2 0 4 5 4 10 0 6 -5 10 -11 10 -5 0
-7 -4 -4 -10z"/>
<path d="M4180 2499 c0 -5 5 -7 10 -4 6 3 10 8 10 11 0 2 -4 4 -10 4 -5 0 -10
-5 -10 -11z"/>
<path d="M4267 2493 c-4 -3 -7 -12 -7 -18 0 -18 41 -11 52 8 7 14 5 17 -15 17
-13 0 -27 -3 -30 -7z"/>
<path d="M4220 2430 c0 -5 7 -10 16 -10 8 0 12 5 9 10 -3 6 -10 10 -16 10 -5
0 -9 -4 -9 -10z"/>
<path d="M2863 2195 c11 -231 85 -449 208 -611 46 -61 51 -74 50 -115 -1 -56
29 -105 128 -213 36 -39 90 -113 120 -164 58 -101 57 -101 259 -221 40 -24 96
-65 124 -90 l51 -46 -5 45 c-3 25 -12 59 -19 75 -7 17 -17 48 -23 70 -8 29
-18 41 -36 46 -14 4 -19 7 -12 8 7 1 11 5 8 10 -4 5 -3 11 2 13 9 4 -2 211
-18 323 -13 93 -40 205 -49 203 -3 -1 -13 2 -23 6 -9 4 -32 -1 -55 -13 -21
-11 -31 -20 -23 -21 13 0 13 -1 0 -10 -12 -8 -12 -10 -1 -10 10 0 11 -3 2 -13
-6 -8 -8 -17 -4 -20 3 -4 -3 -7 -13 -7 -11 0 -25 -5 -32 -12 -9 -9 -12 -9 -12
0 0 9 -5 10 -18 3 -15 -8 -26 -2 -59 32 -52 54 -56 62 -103 218 -22 73 -42
134 -44 137 -18 18 17 -175 41 -221 7 -15 11 -32 8 -37 -3 -5 2 -22 12 -37 17
-25 17 -27 0 -20 -14 5 -17 1 -17 -23 0 -17 -4 -30 -9 -30 -5 0 -12 -11 -15
-25 -10 -40 -34 -30 -47 19 -11 44 -12 45 -58 48 -41 3 -46 6 -49 28 -3 29 39
60 82 60 l27 0 -28 29 c-37 39 -48 53 -56 74 -3 9 -12 16 -19 15 -11 -3 -98
153 -98 177 0 7 -8 23 -19 36 -10 13 -24 42 -31 64 -7 22 -16 45 -20 50 -5 6
-9 13 -9 18 -2 25 -15 57 -22 57 -5 0 -9 7 -9 15 0 8 -4 15 -9 15 -5 0 -12 19
-15 43 -26 170 -50 183 -43 22z"/>
<path d="M3890 2261 c0 -5 5 -13 10 -16 6 -3 10 -2 10 4 0 5 -4 13 -10 16 -5
3 -10 2 -10 -4z"/>
<path d="M3777 2127 c-3 -8 1 -14 9 -14 16 0 19 13 5 21 -5 3 -11 0 -14 -7z"/>
<path d="M3780 2031 c0 -5 6 -14 14 -20 11 -9 16 -9 22 0 4 8 3 9 -4 5 -7 -4
-12 -1 -12 8 0 9 -4 16 -10 16 -5 0 -10 -4 -10 -9z"/>
<path d="M3245 1900 c2 -27 15 -38 15 -12 0 11 -4 23 -8 26 -5 3 -8 -4 -7 -14z"/>
<path d="M3250 1845 c0 -8 4 -15 10 -15 5 0 7 7 4 15 -4 8 -8 15 -10 15 -2 0
-4 -7 -4 -15z"/>
<path d="M3688 1783 c7 -3 16 -2 19 1 4 3 -2 6 -13 5 -11 0 -14 -3 -6 -6z"/>
<path d="M3652 1720 c0 -14 2 -19 5 -12 2 6 2 18 0 25 -3 6 -5 1 -5 -13z"/>
<path d="M3687 1703 c-11 -10 -8 -20 7 -26 10 -4 12 0 9 14 -6 21 -7 22 -16
12z"/>
<path d="M3733 1469 c-38 -19 -41 -23 -33 -45 5 -13 7 -24 4 -24 -4 0 -1 -7 6
-15 28 -34 80 3 80 57 0 44 -12 49 -57 27z"/>
<path d="M3700 1362 c0 -5 7 -15 16 -22 12 -11 18 -10 32 4 16 16 16 17 -1 10
-9 -3 -24 -1 -32 6 -8 7 -15 8 -15 2z"/>
<path d="M4491 1331 c-29 -35 -37 -71 -17 -71 17 0 78 70 73 85 -7 21 -33 14
-56 -14z"/>
<path d="M3710 1304 c0 -22 40 -52 61 -47 15 4 17 8 8 19 -6 8 -18 14 -25 14
-8 0 -14 6 -14 13 0 8 -7 14 -15 14 -8 0 -15 -6 -15 -13z"/>
<path d="M4400 1300 c0 -11 2 -20 4 -20 2 0 6 9 9 20 3 11 1 20 -4 20 -5 0 -9
-9 -9 -20z"/>
<path d="M4522 1170 c-12 -16 -22 -33 -22 -37 0 -10 -85 -127 -124 -171 -17
-18 -36 -30 -43 -28 -7 3 -13 1 -13 -5 0 -6 -5 -7 -11 -3 -7 4 -9 -9 -4 -43 3
-29 1 -62 -5 -79 -7 -16 -12 -45 -12 -64 0 -27 -9 -44 -41 -79 -32 -33 -36
-40 -17 -31 14 7 38 23 53 34 22 16 30 18 36 8 6 -10 11 -9 22 4 13 16 15 15
20 -12 7 -29 7 -28 8 6 2 60 6 62 112 46 52 -8 125 -22 163 -32 49 -12 70 -14
75 -6 5 8 15 7 36 -4 50 -25 86 -66 117 -129 23 -49 28 -69 24 -110 -3 -35 -3
-41 3 -20 7 30 7 30 15 -13 8 -44 -7 -102 -26 -102 -5 0 -6 -5 -3 -11 4 -6 -1
-17 -11 -25 -17 -12 -17 -13 -1 -8 13 5 17 1 17 -15 0 -23 7 -26 29 -12 16 10
61 -32 61 -57 0 -8 6 -12 13 -9 8 3 21 -9 32 -29 10 -19 22 -34 27 -34 4 0 8
-8 8 -17 0 -13 3 -14 12 -5 8 8 5 22 -13 56 -13 24 -27 42 -31 40 -4 -3 -8 10
-8 28 0 46 32 66 60 38 11 -11 20 -16 20 -12 0 5 7 9 15 9 8 0 15 -7 15 -14 0
-8 10 -24 23 -37 13 -13 31 -38 40 -57 9 -19 17 -30 17 -25 0 5 8 0 18 -10 45
-49 104 -94 124 -94 21 0 21 1 -7 30 -16 16 -26 30 -22 30 3 0 19 -14 35 -31
23 -25 35 -30 63 -27 l34 3 -64 50 c-35 28 -94 75 -131 106 -81 68 -101 81
-80 53 8 -10 17 -21 20 -24 3 -3 12 -14 20 -25 12 -17 10 -16 -11 3 -14 12
-31 22 -37 22 -7 0 -12 7 -12 15 0 8 -4 15 -10 15 -5 0 -10 10 -10 22 0 14
-37 60 -108 132 -101 103 -158 181 -191 264 -7 17 -17 32 -22 32 -5 0 -5 7 -2
17 4 11 3 14 -5 9 -17 -10 -62 4 -62 20 0 8 -4 14 -10 14 -5 0 -10 4 -10 10 0
6 10 5 25 -2 13 -6 22 -14 20 -18 -3 -5 2 -11 10 -14 18 -6 31 17 20 35 -12
18 -71 39 -110 39 -40 0 -85 25 -85 47 0 8 -13 26 -30 41 -16 15 -29 36 -28
47 0 11 -3 36 -7 55 -4 19 -8 50 -9 67 -1 18 -4 33 -8 33 -12 0 -9 25 4 38 10
10 24 92 15 92 -2 0 -13 -13 -25 -30z m-92 -280 c0 -9 -31 -30 -45 -30 -3 0
-1 9 5 20 11 20 40 28 40 10z"/>
<path d="M3825 1013 c20 -15 20 -15 -3 -10 -18 4 -22 2 -18 -9 3 -8 -1 -17 -9
-20 -8 -4 -12 -10 -9 -15 7 -12 51 -11 59 1 3 6 -1 10 -10 10 -15 0 -15 1 0
16 12 12 13 19 4 30 -6 8 -17 14 -23 14 -6 0 -2 -8 9 -17z"/>
<path d="M3814 686 c-17 -44 40 -122 107 -145 29 -10 30 -9 18 7 -8 9 -33 35
-57 57 -23 22 -45 51 -47 64 -6 31 -13 38 -21 17z"/>
<path d="M4236 578 c-21 -20 -37 -47 -41 -68 -5 -30 -4 -32 6 -15 6 11 20 29
29 40 25 29 53 75 46 75 -3 0 -22 -15 -40 -32z"/>
<path d="M4247 489 c-9 -6 -17 -20 -18 -32 -1 -21 -2 -20 -9 3 -8 24 -8 24 -9
-7 -1 -35 -18 -38 -50 -11 -11 9 -23 13 -27 9 -5 -5 -20 -5 -34 0 -14 4 -19 7
-12 8 6 1 12 5 12 10 0 6 -9 9 -20 8 -40 -3 -19 -27 38 -43 31 -9 90 -36 130
-60 40 -24 75 -44 77 -44 3 0 36 -20 75 -45 39 -25 73 -45 77 -45 3 0 19 -14
35 -31 36 -37 86 -59 130 -58 30 1 31 2 8 8 -24 7 -24 8 -5 18 11 6 22 11 25
10 12 -1 79 39 80 48 1 24 14 52 38 80 l25 30 -31 3 c-18 2 -32 8 -32 14 0 6
-6 6 -15 -2 -12 -10 -15 -10 -15 4 0 18 -26 21 -64 6 -21 -8 -24 -7 -19 7 5
13 3 13 -14 5 -15 -8 -25 -8 -40 3 -11 8 -23 12 -26 8 -14 -13 -99 -12 -134 2
-23 10 -49 13 -71 9 -32 -6 -33 -5 -23 14 6 12 24 29 41 38 48 29 47 45 -2 28
-52 -18 -85 -18 -95 0 -6 11 -13 12 -26 5z"/>
<path d="M4867 339 c-10 -18 -21 -27 -28 -23 -7 4 -9 3 -6 -3 4 -6 -7 -25 -22
-42 -20 -22 -31 -28 -34 -19 -4 8 -6 7 -6 -5 -1 -10 -15 -31 -31 -47 -47 -46
-25 -36 47 22 46 36 71 65 84 96 23 53 21 63 -4 21z"/>
<path d="M4607 129 c7 -7 15 -10 18 -7 3 3 -2 9 -12 12 -14 6 -15 5 -6 -5z"/>
</g>
</svg>
